<svg id="visual" viewBox="0 0 1980 1020" width="1980" height="1020" xmlns="http://www.w3.org/2000/svg" xmlns:xlink="http://www.w3.org/1999/xlink" version="1.1"><rect x="0" y="0" width="1980" height="1020" fill="#001220"></rect><defs><linearGradient id="grad1_0" x1="48.5%" y1="100%" x2="100%" y2="0%"><stop offset="11.176470588235295%" stop-color="#fbae3c" stop-opacity="1"></stop><stop offset="88.82352941176471%" stop-color="#fbae3c" stop-opacity="1"></stop></linearGradient></defs><defs><linearGradient id="grad1_1" x1="48.5%" y1="100%" x2="100%" y2="0%"><stop offset="11.176470588235295%" stop-color="#fbae3c" stop-opacity="1"></stop><stop offset="88.82352941176471%" stop-color="#e1685e" stop-opacity="1"></stop></linearGradient></defs><defs><linearGradient id="grad1_2" x1="48.5%" y1="100%" x2="100%" y2="0%"><stop offset="11.176470588235295%" stop-color="#96446e" stop-opacity="1"></stop><stop offset="88.82352941176471%" stop-color="#e1685e" stop-opacity="1"></stop></linearGradient></defs><defs><linearGradient id="grad1_3" x1="48.5%" y1="100%" x2="100%" y2="0%"><stop offset="11.176470588235295%" stop-color="#96446e" stop-opacity="1"></stop><stop offset="88.82352941176471%" stop-color="#3d3056" stop-opacity="1"></stop></linearGradient></defs><defs><linearGradient id="grad1_4" x1="48.5%" y1="100%" x2="100%" y2="0%"><stop offset="11.176470588235295%" stop-color="#001220" stop-opacity="1"></stop><stop offset="88.82352941176471%" stop-color="#3d3056" stop-opacity="1"></stop></linearGradient></defs><defs><linearGradient id="grad2_0" x1="0%" y1="100%" x2="51.5%" y2="0%"><stop offset="11.176470588235295%" stop-color="#fbae3c" stop-opacity="1"></stop><stop offset="88.82352941176471%" stop-color="#fbae3c" stop-opacity="1"></stop></linearGradient></defs><defs><linearGradient id="grad2_1" x1="0%" y1="100%" x2="51.5%" y2="0%"><stop offset="11.176470588235295%" stop-color="#e1685e" stop-opacity="1"></stop><stop offset="88.82352941176471%" stop-color="#fbae3c" stop-opacity="1"></stop></linearGradient></defs><defs><linearGradient id="grad2_2" x1="0%" y1="100%" x2="51.5%" y2="0%"><stop offset="11.176470588235295%" stop-color="#e1685e" stop-opacity="1"></stop><stop offset="88.82352941176471%" stop-color="#96446e" stop-opacity="1"></stop></linearGradient></defs><defs><linearGradient id="grad2_3" x1="0%" y1="100%" x2="51.5%" y2="0%"><stop offset="11.176470588235295%" stop-color="#3d3056" stop-opacity="1"></stop><stop offset="88.82352941176471%" stop-color="#96446e" stop-opacity="1"></stop></linearGradient></defs><defs><linearGradient id="grad2_4" x1="0%" y1="100%" x2="51.5%" y2="0%"><stop offset="11.176470588235295%" stop-color="#3d3056" stop-opacity="1"></stop><stop offset="88.82352941176471%" stop-color="#001220" stop-opacity="1"></stop></linearGradient></defs><g transform="translate(1980, 1020)"><path d="M-714 0C-716.7 -104.4 -719.5 -208.8 -659.6 -273.2C-599.8 -337.7 -477.4 -362.2 -397.4 -397.4C-317.4 -432.6 -280 -478.5 -220.8 -533.1C-161.7 -587.6 -80.8 -650.8 0 -714L0 0Z" fill="#18223c"></path><path d="M-571.2 0C-573.4 -83.5 -575.6 -167 -527.7 -218.6C-479.8 -270.1 -381.9 -289.7 -317.9 -317.9C-253.9 -346.1 -224 -382.8 -176.6 -426.5C-129.3 -470.1 -64.7 -520.7 0 -571.2L0 0Z" fill="#683a67"></path><path d="M-428.4 0C-430 -62.6 -431.7 -125.3 -395.8 -163.9C-359.9 -202.6 -286.4 -217.3 -238.4 -238.4C-190.5 -259.6 -168 -287.1 -132.5 -319.8C-97 -352.6 -48.5 -390.5 0 -428.4L0 0Z" fill="#c0526a"></path><path d="M-285.6 0C-286.7 -41.8 -287.8 -83.5 -263.9 -109.3C-239.9 -135.1 -190.9 -144.9 -159 -159C-127 -173 -112 -191.4 -88.3 -213.2C-64.7 -235.1 -32.3 -260.3 0 -285.6L0 0Z" fill="#f6884d"></path><path d="M-142.8 0C-143.3 -20.9 -143.9 -41.8 -131.9 -54.6C-120 -67.5 -95.5 -72.4 -79.5 -79.5C-63.5 -86.5 -56 -95.7 -44.2 -106.6C-32.3 -117.5 -16.2 -130.2 0 -142.8L0 0Z" fill="#fbae3c"></path></g><g transform="translate(0, 0)"><path d="M714 0C716.9 107 719.9 214 659.6 273.2C599.4 332.5 476 343.9 408 408C340 472.1 327.4 588.8 268.6 648.6C209.9 708.3 104.9 711.2 0 714L0 0Z" fill="#18223c"></path><path d="M571.2 0C573.6 85.6 575.9 171.2 527.7 218.6C479.5 266 380.8 275.1 326.4 326.4C272 377.7 261.9 471 214.9 518.9C167.9 566.7 84 568.9 0 571.2L0 0Z" fill="#683a67"></path><path d="M428.4 0C430.2 64.2 431.9 128.4 395.8 163.9C359.6 199.5 285.6 206.4 244.8 244.8C204 283.2 196.4 353.3 161.2 389.1C125.9 425 63 426.7 0 428.4L0 0Z" fill="#c0526a"></path><path d="M285.6 0C286.8 42.8 288 85.6 263.9 109.3C239.8 133 190.4 137.6 163.2 163.2C136 188.8 131 235.5 107.5 259.4C84 283.3 42 284.5 0 285.6L0 0Z" fill="#f6884d"></path><path d="M142.8 0C143.4 21.4 144 42.8 131.9 54.6C119.9 66.5 95.2 68.8 81.6 81.6C68 94.4 65.5 117.8 53.7 129.7C42 141.7 21 142.2 0 142.8L0 0Z" fill="#fbae3c"></path></g></svg>