<svg id="visual" viewBox="0 0 1980 1080" width="1980" height="1080" xmlns="http://www.w3.org/2000/svg" xmlns:xlink="http://www.w3.org/1999/xlink" version="1.1"><rect x="0" y="0" width="1980" height="1080" fill="#001122"></rect><defs><linearGradient id="grad1_0" x1="45.5%" y1="100%" x2="100%" y2="0%"><stop offset="13.333333333333334%" stop-color="#715df2" stop-opacity="1"></stop><stop offset="86.66666666666667%" stop-color="#715df2" stop-opacity="1"></stop></linearGradient></defs><defs><linearGradient id="grad1_1" x1="45.5%" y1="100%" x2="100%" y2="0%"><stop offset="13.333333333333334%" stop-color="#715df2" stop-opacity="1"></stop><stop offset="86.66666666666667%" stop-color="#3150bf" stop-opacity="1"></stop></linearGradient></defs><defs><linearGradient id="grad1_2" x1="45.5%" y1="100%" x2="100%" y2="0%"><stop offset="13.333333333333334%" stop-color="#003d8a" stop-opacity="1"></stop><stop offset="86.66666666666667%" stop-color="#3150bf" stop-opacity="1"></stop></linearGradient></defs><defs><linearGradient id="grad1_3" x1="45.5%" y1="100%" x2="100%" y2="0%"><stop offset="13.333333333333334%" stop-color="#003d8a" stop-opacity="1"></stop><stop offset="86.66666666666667%" stop-color="#002854" stop-opacity="1"></stop></linearGradient></defs><defs><linearGradient id="grad1_4" x1="45.5%" y1="100%" x2="100%" y2="0%"><stop offset="13.333333333333334%" stop-color="#001122" stop-opacity="1"></stop><stop offset="86.66666666666667%" stop-color="#002854" stop-opacity="1"></stop></linearGradient></defs><defs><linearGradient id="grad2_0" x1="0%" y1="100%" x2="54.5%" y2="0%"><stop offset="13.333333333333334%" stop-color="#715df2" stop-opacity="1"></stop><stop offset="86.66666666666667%" stop-color="#715df2" stop-opacity="1"></stop></linearGradient></defs><defs><linearGradient id="grad2_1" x1="0%" y1="100%" x2="54.5%" y2="0%"><stop offset="13.333333333333334%" stop-color="#3150bf" stop-opacity="1"></stop><stop offset="86.66666666666667%" stop-color="#715df2" stop-opacity="1"></stop></linearGradient></defs><defs><linearGradient id="grad2_2" x1="0%" y1="100%" x2="54.5%" y2="0%"><stop offset="13.333333333333334%" stop-color="#3150bf" stop-opacity="1"></stop><stop offset="86.66666666666667%" stop-color="#003d8a" stop-opacity="1"></stop></linearGradient></defs><defs><linearGradient id="grad2_3" x1="0%" y1="100%" x2="54.5%" y2="0%"><stop offset="13.333333333333334%" stop-color="#002854" stop-opacity="1"></stop><stop offset="86.66666666666667%" stop-color="#003d8a" stop-opacity="1"></stop></linearGradient></defs><defs><linearGradient id="grad2_4" x1="0%" y1="100%" x2="54.5%" y2="0%"><stop offset="13.333333333333334%" stop-color="#002854" stop-opacity="1"></stop><stop offset="86.66666666666667%" stop-color="#001122" stop-opacity="1"></stop></linearGradient></defs><g transform="translate(1980, 1080)"><path d="M-756 0C-700.4 -62.1 -644.9 -124.2 -631.5 -205.2C-618.1 -286.2 -647 -386.1 -611.6 -444.4C-576.2 -502.7 -476.5 -519.4 -403.8 -555.8C-331.1 -592.2 -285.3 -648.1 -222.5 -684.8C-159.7 -721.4 -79.8 -738.7 0 -756L0 0Z" fill="#001d3a"></path><path d="M-604.8 0C-560.3 -49.7 -515.9 -99.4 -505.2 -164.1C-494.5 -228.9 -517.6 -308.8 -489.3 -355.5C-461 -402.1 -381.2 -415.5 -323 -444.6C-264.9 -473.7 -228.2 -518.5 -178 -547.8C-127.7 -577.1 -63.9 -591 0 -604.8L0 0Z" fill="#00336f"></path><path d="M-453.6 0C-420.3 -37.3 -386.9 -74.5 -378.9 -123.1C-370.9 -171.7 -388.2 -231.6 -367 -266.6C-345.7 -301.6 -285.9 -311.7 -242.3 -333.5C-198.6 -355.3 -171.2 -388.9 -133.5 -410.9C-95.8 -432.8 -47.9 -443.2 0 -453.6L0 0Z" fill="#0e47a5"></path><path d="M-302.4 0C-280.2 -24.8 -257.9 -49.7 -252.6 -82.1C-247.3 -114.5 -258.8 -154.4 -244.6 -177.7C-230.5 -201.1 -190.6 -207.8 -161.5 -222.3C-132.4 -236.9 -114.1 -259.3 -89 -273.9C-63.9 -288.6 -31.9 -295.5 0 -302.4L0 0Z" fill="#5057d9"></path><path d="M-151.2 0C-140.1 -12.4 -129 -24.8 -126.3 -41C-123.6 -57.2 -129.4 -77.2 -122.3 -88.9C-115.2 -100.5 -95.3 -103.9 -80.8 -111.2C-66.2 -118.4 -57.1 -129.6 -44.5 -137C-31.9 -144.3 -16 -147.7 0 -151.2L0 0Z" fill="#715df2"></path></g><g transform="translate(0, 0)"><path d="M756 0C715.7 69.4 675.4 138.8 656.2 213.2C637.1 287.7 639.1 367.1 610 443.2C580.9 519.2 520.6 591.9 444.4 611.6C368.2 631.4 276 598.2 199.3 613.4C122.6 628.7 61.3 692.3 0 756L0 0Z" fill="#001d3a"></path><path d="M604.8 0C572.5 55.5 540.3 111 525 170.6C509.7 230.1 511.3 293.7 488 354.6C464.7 415.4 416.5 473.5 355.5 489.3C294.5 505.1 220.8 478.5 159.5 490.7C98.1 502.9 49 553.9 0 604.8L0 0Z" fill="#00336f"></path><path d="M453.6 0C429.4 41.6 405.2 83.3 393.7 127.9C382.3 172.6 383.5 220.3 366 265.9C348.5 311.5 312.3 355.1 266.6 367C220.9 378.8 165.6 358.9 119.6 368.1C73.6 377.2 36.8 415.4 0 453.6L0 0Z" fill="#0e47a5"></path><path d="M302.4 0C286.3 27.8 270.1 55.5 262.5 85.3C254.8 115.1 255.7 146.9 244 177.3C232.3 207.7 208.2 236.8 177.7 244.6C147.3 252.5 110.4 239.3 79.7 245.4C49 251.5 24.5 276.9 0 302.4L0 0Z" fill="#5057d9"></path><path d="M151.2 0C143.1 13.9 135.1 27.8 131.2 42.6C127.4 57.5 127.8 73.4 122 88.6C116.2 103.8 104.1 118.4 88.9 122.3C73.6 126.3 55.2 119.6 39.9 122.7C24.5 125.7 12.3 138.5 0 151.2L0 0Z" fill="#715df2"></path></g></svg>